<svg xmlns="http://www.w3.org/2000/svg" viewBox="0 0 599.99 692.81"><g id="Calque_2" data-name="Calque 2"><g id="Calque_1-2" data-name="Calque 1"><path d="M281.92,359.77,251.86,342.4h0l-32.14-18.57-32.13-18.57-32.12-18.56-32.13-18.57L91.22,249.56,59.11,231l-25.88-15a4.15,4.15,0,0,0-6.23,3.6v175.6a4.15,4.15,0,0,0,2.07,3.6l30,17.37,32.11,18.57,32.12,18.57,32.13,18.58,32.12,18.58,30,17.38a4.14,4.14,0,0,1,2.08,3.6V539a4.16,4.16,0,0,1-6.24,3.59l-25.89-15L155.47,509l-32.13-18.58L91.22,471.84,59.11,453.27l-25.88-15A4.15,4.15,0,0,0,27,441.9v64.48a4.15,4.15,0,0,0,2.07,3.6l30,17.34L27,508.78l32.11,18.57,32.11,18.58,32.12,18.58,32.13,18.58,32.12,18.59v-.18l32.13,18.55,32.14,18.55,25.9,15A4.16,4.16,0,0,0,284,650V474.55a4.14,4.14,0,0,0-2.08-3.6l-30.06-17.38L219.72,435l-32.13-18.58-32.12-18.57-32.13-18.57-30-17.37a4.15,4.15,0,0,1-2.07-3.6V330.85a4.15,4.15,0,0,1,6.23-3.6l25.89,15,32.13,18.57,32.12,18.57,32.13,18.57,32.14,18.58,25.9,15a4.16,4.16,0,0,0,6.24-3.6V363.37A4.14,4.14,0,0,0,281.92,359.77Z"/><polygon points="348.14 638.6 348.14 638.86 380.28 620.27 412.41 601.68 412.41 601.5 380.28 620.05 348.14 638.6"/><path d="M508.78,249.56l-32.12,18.56-32.13,18.57-32.12,18.56-32.13,18.57-32.14,18.57h0l-30.28,17.49a3.74,3.74,0,0,0-1.86,3.23v287a3.74,3.74,0,0,0,5.6,3.24L348.14,638l32.14-18.55,32.13-18.55,32.12-18.55v.72l32.13-18.58,32.12-18.58,32.11-18.58L573,508.78V212.45l-1,.58v6.47a3.73,3.73,0,0,0-5.6-3.23L540.89,231Zm0,111.14v109a3.73,3.73,0,0,1-1.87,3.23l-24.65,14.26a3.73,3.73,0,0,1-5.6-3.23V459.83a3.73,3.73,0,0,0-5.6-3.23l-26.53,15.34-30.26,17.5a3.74,3.74,0,0,0-1.86,3.23v32.75a3.73,3.73,0,0,1-1.87,3.23l-24.66,14.27a3.73,3.73,0,0,1-5.6-3.23V400.08a3.74,3.74,0,0,1,1.86-3.23l30.27-17.49,32.12-18.57,32.13-18.57,26.52-15.33a3.73,3.73,0,0,1,5.6,3.23Zm61.35,149.16a3.73,3.73,0,0,0,1.87-3.24v2.16l-31.11,18Z"/><path d="M294.75,40.09,268.63,55.16,236.48,73.7l32.09,18.53,32.09,18.53,32.09,18.52L300.6,147.83l-32.15,18.53-32.14,18.53-32.14,18.54h0L172,222,139.9,240.48,172,259l32.08,18.52L236.2,259l32.13-18.53,32.14-18.53,32.15-18.53,32.15-18.53,32.16-18.54L429,184.87l32.09,18.53,31.15,18,32.11-18.58,31.29-18.11-31-17.91-32.1-18.53-32.09-18.53-32.09-18.53-32.1-18.53L364.18,74.13,332.08,55.6,305.23,40.09A10.49,10.49,0,0,0,294.75,40.09Z"/><polygon points="525.38 203.39 525.16 203.26 524.37 202.8 525.16 203.26 525.38 203.39"/><path d="M300,0,0,173.2V519.61l300,173.2,300-173.2V173.2ZM588,512.68,300,679,12,512.68V180.13L300,13.86,588,180.13Z"/></g></g></svg>